<?xml version="1.0" encoding="UTF-8"?>
<svg width="24px" height="24px" viewBox="0 0 24 24" version="1.1" xmlns="http://www.w3.org/2000/svg" xmlns:xlink="http://www.w3.org/1999/xlink">
    <!-- Generator: Sketch 59 (86127) - https://sketch.com -->
    <title>ic_puntos</title>
    <desc>Created with Sketch.</desc>
    <g id="ic_puntos" stroke="none" stroke-width="1" fill="none" fill-rule="evenodd">
        <g id="ic/nav/more" fill="#4A4A4A">
            <path d="M12,16 C13.0993333,16 14,16.8933333 14,18 C14,19.1066667 13.0993333,20 12,20 C10.8933333,20 10,19.1066667 10,18 C10,16.8933333 10.8933333,16 12,16 Z M12,10 C13.0993333,10 14,10.8933333 14,12 C14,13.1066667 13.0993333,14 12,14 C10.8933333,14 10,13.1066667 10,12 C10,10.8933333 10.8933333,10 12,10 Z M12,4 C13.0993333,4 14,4.89333333 14,6 C14,7.10666667 13.0993333,8 12,8 C10.8933333,8 10,7.10666667 10,6 C10,4.89333333 10.8933333,4 12,4 Z" id="Combined-Shape"></path>
        </g>
    </g>
</svg>